<svg height="702" width="720" xmlns="http://www.w3.org/2000/svg">
<rect height="702" fill="#555" width="720"></rect>
<text fill="#7f7" font-family="Courier New" font-size="12" xml:space="preserve">
<tspan x="10" y="26">4 megabytes installed</tspan>
<tspan x="10" y="42"></tspan>
<tspan x="10" y="58">node_modules</tspan>
<tspan x="10" y="74">└─┬ grunt-contrib-htmlmin@2.3.0 </tspan>
<tspan x="10" y="90">  ├─┬ chalk@1.1.3 </tspan>
<tspan x="10" y="106">  │ ├── ansi-styles@2.2.1 </tspan>
<tspan x="10" y="122">  │ ├── escape-string-regexp@1.0.5 </tspan>
<tspan x="10" y="138">  │ ├─┬ has-ansi@2.0.0 </tspan>
<tspan x="10" y="154">  │ │ └── ansi-regex@2.1.1 </tspan>
<tspan x="10" y="170">  │ ├── strip-ansi@3.0.1 </tspan>
<tspan x="10" y="186">  │ └── supports-color@2.0.0 </tspan>
<tspan x="10" y="202">  ├─┬ html-minifier@3.4.3 </tspan>
<tspan x="10" y="218">  │ ├─┬ camel-case@3.0.0 </tspan>
<tspan x="10" y="234">  │ │ ├─┬ no-case@2.3.1 </tspan>
<tspan x="10" y="250">  │ │ │ └── lower-case@1.1.4 </tspan>
<tspan x="10" y="266">  │ │ └── upper-case@1.1.3 </tspan>
<tspan x="10" y="282">  │ ├─┬ clean-css@4.0.12 </tspan>
<tspan x="10" y="298">  │ │ └── source-map@0.5.6 </tspan>
<tspan x="10" y="314">  │ ├─┬ commander@2.9.0 </tspan>
<tspan x="10" y="330">  │ │ └── graceful-readlink@1.0.1 </tspan>
<tspan x="10" y="346">  │ ├── he@1.1.1 </tspan>
<tspan x="10" y="362">  │ ├─┬ ncname@1.0.0 </tspan>
<tspan x="10" y="378">  │ │ └── xml-char-classes@1.0.0 </tspan>
<tspan x="10" y="394">  │ ├── param-case@2.1.1 </tspan>
<tspan x="10" y="410">  │ ├── relateurl@0.2.7 </tspan>
<tspan x="10" y="426">  │ └─┬ uglify-js@2.8.22 </tspan>
<tspan x="10" y="442">  │   ├── uglify-to-browserify@1.0.2 </tspan>
<tspan x="10" y="458">  │   └─┬ yargs@3.10.0 </tspan>
<tspan x="10" y="474">  │     ├── camelcase@1.2.1 </tspan>
<tspan x="10" y="490">  │     ├─┬ cliui@2.1.0 </tspan>
<tspan x="10" y="506">  │     │ ├─┬ center-align@0.1.3 </tspan>
<tspan x="10" y="522">  │     │ │ ├─┬ align-text@0.1.4 </tspan>
<tspan x="10" y="538">  │     │ │ │ ├─┬ kind-of@3.1.0 </tspan>
<tspan x="10" y="554">  │     │ │ │ │ └── is-buffer@1.1.5 </tspan>
<tspan x="10" y="570">  │     │ │ │ ├── longest@1.0.1 </tspan>
<tspan x="10" y="586">  │     │ │ │ └── repeat-string@1.6.1 </tspan>
<tspan x="10" y="602">  │     │ │ └── lazy-cache@1.0.4 </tspan>
<tspan x="10" y="618">  │     │ ├── right-align@0.1.3 </tspan>
<tspan x="10" y="634">  │     │ └── wordwrap@0.0.2 </tspan>
<tspan x="10" y="650">  │     ├── decamelize@1.2.0 </tspan>
<tspan x="10" y="666">  │     └── window-size@0.1.0 </tspan>
<tspan x="10" y="682">  └── pretty-bytes@4.0.2</tspan>
</text>
</svg>
